# xmcd CD database file
#
# Track frame offsets:
#	150
#	22706
#	48700
#	68323
#	101178
#	135246
#	142159
#	178619
#	204327
#	222303
#
# Disc length: 3466 seconds
#
# Revision: 3
# Processed by: cddbd v1.5.1PL0 Copyright (c) Steve Scherf et al.
# Submitted via: CDex 1.51
#
DISCID=8a0d880a
DTITLE=Air Ensemble - Classica per il rilassamento
DYEAR=1900
DGENRE=New Age
TTITLE0=Ave Maria (J.S. Bach - C. Gounod)
TTITLE1=Aria (dalla suite in re J. S. Bach)
TTITLE2=Greensleeves (tradizionale inglese)
TTITLE3=Ave Maria (F. Shubert)
TTITLE4=Largo ma non tanto (dal concerto in re minore BMW, 1043 J. S. Bach)
TTITLE5=El cant dels ocells (tradizionale catalano, per violoncello solo)
TTITLE6=Adagio in sol minore (T. Albinoni)
TTITLE7=Autunno: 'il sonno degli ubriachi, Inverno: 'la pioggia' (da le quattro stagioni, A. Vivaldi)
TTITLE8=El cant dels ocells (tradizionale catalano, per violoncello e fauto)
TTITLE9=Canone in re maggiore (per tre violini e basso continuo J. Pachelbel)
EXTD=
EXTT0=
EXTT1=
EXTT2=
EXTT3=
EXTT4=
EXTT5=
EXTT6=
EXTT7=
EXTT8=
EXTT9=
PLAYORDER=
